# xmcd
#
# Track frame offsets:
#	150
#	17594
#	33655
#	53315
#	69718
#	87843
#	107757
#	128291
#	140659
#	159719
#	175233
#	185826
#	205591
#	224375
#
# Disc length: 3168 seconds
#
# Revision: 1
# Processed by: cddbd v1.5.2PL0 Copyright (c) Steve Scherf et al.
# Submitted via: EasyCDDAExtractor 16.0.6.1
#
DISCID=c00c5e0e
DTITLE=Otis Taylor - Recapturing the Banjo
DYEAR=2008
DGENRE=Blues
TTITLE0=Otis Taylor - Ran So Hard the Sun Went Down
TTITLE1=Alvin Youngblood Hart - Prophet's Mission
TTITLE2=Otis Taylor - Absinthe
TTITLE3=Keb’ Mo’ - Live Your Life
TTITLE4=Corey Harris - Walk Right In (feat. Guy Davis and Cassie Taylor)
TTITLE5=Otis Taylor - Bow-Legged Charlie
TTITLE6=Otis Taylor - Hey Joe (feat. Alvin Youngblood Hart)
TTITLE7=Guy Davis - Little Liza Jane
TTITLE8=Otis Taylor - Five Hundred Roses
TTITLE9=Don Vappie - Les Ognons (feat. Cassie Taylor)
TTITLE10=Alvin Youngblood Hart - Deep Blue Sea
TTITLE11=Otis Taylor - Simple Mind
TTITLE12=Otis Taylor - Ten Million Slaves
TTITLE13=Keb’ Mo’ - The Way It Goes
EXTD=
EXTT0=
EXTT1=
EXTT2=
EXTT3=
EXTT4=
EXTT5=
EXTT6=
EXTT7=
EXTT8=
EXTT9=
EXTT10=
EXTT11=
EXTT12=
EXTT13=
PLAYORDER=
